<svg width="42" height="22" viewBox="0 0 42 22" fill="none" xmlns="http://www.w3.org/2000/svg">
<path fill-rule="evenodd" clip-rule="evenodd" d="M8.52714 12.927C9.68971 14.1069 11.5747 14.1069 12.7373 12.927L18.1503 18.4207C13.9982 22.6346 7.26628 22.6347 3.1141 18.4207C-1.03804 14.2067 -1.03803 7.37446 3.1141 3.16048C7.26624 -1.0535 13.9982 -1.05349 18.1503 3.1605L12.7373 8.65415C11.5747 7.47423 9.68973 7.47424 8.52714 8.65415C7.36453 9.83407 7.36453 11.7471 8.52714 12.927ZM34.4743 21.7472V14.1582L31.9852 16.7687C30.2235 18.6163 27.1875 18.2842 25.8668 16.0994L23.9253 12.8876L19.8102 16.9329L14.513 11.5964L21.9389 4.2797C23.7218 2.52303 26.6777 2.89309 27.9725 5.03511L29.8357 8.11737L35.3231 2.3623C37.7353 -0.167542 42 1.53978 42 5.03537V21.7472H34.4743Z" fill="black"/>
</svg>
